<?xml version="1.0" encoding="UTF-8"?>
<svg version="1.1" viewBox="0 0 2048 1340" width="657" height="430" xmlns="http://www.w3.org/2000/svg">
<path transform="translate(0)" d="m0 0h2048v1340h-2048z" fill="#3B4C97"/>
<path transform="translate(507,546)" d="m0 0 4 1 17 10 24 13 19 11 39 22 3 3-10 7-17 10-25 15-11 6-23 13-17 10h-2l1 121-3 1-16-9-26-15-25-14-23-13-12-7-1-1-1-80v-42l10-7 26-15 24-14 26-15 14-8z" fill="#FF4A1F"/>
<path transform="translate(732,675)" d="m0 0h3v121l-8 6-15 9-24 14-28 16-25 15-2 1h-6l-23-13-26-15-43-24-10-6-1-1-1-85 1-37 8 4 19 11 29 17 21 12 17 10 9 5 5-1 19-11 20-12 27-16 22-13z" fill="#FF4A1F"/>
<path transform="translate(625,475)" d="m0 0 7 1 10 6 11 6 25 14 24 14 23 13 9 7v122l-16 9-15 9-29 17-27 16-15 9h-2l-2-121-21-13-11-6-14-8-13-8-11-6-21-12-13-7v-2l16-9 21-13 26-15 25-15z" fill="#FF4A1F"/>
<path transform="translate(855,601)" d="m0 0h10l17 4 13 7 6 6 3 1v-2l11-8 11-5 14-3h11l13 3 14 7 10 9 7 9 5 11 3 13v70l-1 1h-32l-1-66-3-10-6-8-10-5h-11l-9 4-5 5-4 7-1 6-1 66-1 1h-32l-1-67-3-9-4-6-6-5-6-2h-11l-10 5-5 6-3 6-1 10v61l-1 1h-33v-120h34l-1 7 15-9z" fill="#fff"/>
<path transform="translate(1077,601)" d="m0 0h15l12 4 12 7 1-8h32v119l-1 1h-29l-2-1v-7l-12 7-11 3h-19l-15-5-11-6-10-9-7-10-5-10-3-11-1-14 2-14 4-11 7-11 11-11 10-6 8-4z" fill="#fff"/>
<path transform="translate(1460,600)" d="m0 0 16 2 12 4 11 7 11 11 7 11 5 13 2 12-1 15-5 16-7 11-8 9-14 9-13 5-4 1h-23l-15-5-11-6-11-10-7-10-6-15-2-12 1-16 4-14 6-10 9-10 9-8 12-6 12-3z" fill="#fff"/>
<path transform="translate(1,1153)" d="m0 0 2 3 6 2 1 6-2 1 2 1-1 3 4-2v-2h2l2 5 1 3 2 13 1 5-1 7 5 7-1 6 6 1v-3l5-1v2l3-1h3l-1 5-5 2-1 3 1 5-2 2-5-3 2 6 3 3v4l-2 1 3 2-3 1-1 3-4 1 2 5h2l-1-5 6 1 3 2-1 4-2 3 6 4-1 6v3l3 1 1-3 5 1v4h-2l-1 8h2l2 9 4 1 4 3 1 5 4 2-1 4h4l5-2 7 1 1 3 7 4 3 1 7-1 3 3 2 3h13l4 2h-2v2l4-1 1-3h3l2 2 6-1v2h2l2 4 7-2 4-2v8l7-2 2-1 1 2h4l2 2-3 6 1 2-1 1h3l4-4 12 2 4-2 6 1-1 3 5 2 2-2v-3l6 3 4-1 4 1h7l5 3 8-2 4 2h-2v2h-231v-186z" fill="#25378B"/>
<path transform="translate(1234,600)" d="m0 0 14 1 15 5 13 9 10 10 3 5v2l-16 12-8 7-12-12-10-5-4-1h-8l-9 3-6 4-6 7-4 10v13l3 9 6 8 10 6 4 1h12l12-6 7-7 3-4 4 2 23 16-2 5-14 14-12 7-15 5h-23l-13-4-13-7-12-11-7-11-5-13-2-12v-9l2-12 5-13 7-10 9-10 9-6 12-5 9-2z" fill="#fff"/>
<path transform="translate(1577,602)" d="m0 0h19l17 5 14 8 5 4-1 4-10 11-6 7-5-2-9-5-5-2h-13l-7 3-1 4 4 4 21 7 15 4 10 6 7 8 4 9 1 5v9l-3 10-6 10-7 6-12 5-14 3-14-1-14-3-16-8-10-9 2-4 11-12 5-6 4 1 9 7 10 4 4 1h9l8-3 3-3-1-6-9-4-20-5-13-5-9-6-6-9-3-9v-14l4-10 9-10 10-6z" fill="#fff"/>
<path transform="translate(1382,600)" d="m0 0h8l-1 9-6 24-18 4-8 6-4 5-2 5-1 70-1 1h-33v-120h34l1 7 12-7 10-3z" fill="#fff"/>
<path transform="translate(1452,632)" d="m0 0h16l10 4 6 5 6 10 2 7v13l-4 10-8 9-10 5-4 1h-10l-10-3-6-4-7-8-4-11v-13l4-10 6-8 7-5z" fill="#3C4D98"/>
<path transform="translate(1083,632)" d="m0 0 12 1 8 4 6 5 5 8 3 10v8l-3 9-5 8-8 6-10 4h-9l-10-3-9-7-6-10-1-4v-15l4-10 9-9 8-4z" fill="#3B4C97"/>
<path transform="translate(504,542)" d="m0 0h5l-2 5-18 10-15 9-24 14-28 16-19 12v42l1 80 23 13 25 14 24 14 27 15 5 2v-121l12-7h3l-1 3-8 4-1 1-1 114-1 11-5-1-12-5-20-12-11-6-32-18-5-3-20-11-7-5-1-6-2-2v-4l2-4-1-3 1-6v-58l-1-22 1-3v-19l5-5 12-8 6-3 9-5 2-2 15-8 9-5 3-2h3v-2l18-10 14-8h3v-2z" fill="#2A3C8D"/>
<path transform="translate(523,673)" d="m0 0 9 3 10 4v2l4 1 12 7 9 5 16 9 6 3v2l5 1 19 11 3 1 4 4 6 2v2l6-2 13-8 9-6 11-7 11-6 7-4v-2l4-1 21-12 5-1v-2l9-3 7-3 3 1-5 5-21 12-25 15-29 17-13 8-9 5-5-1-23-13-15-9-28-16-34-20z" fill="#293B8D"/>
<path transform="translate(515,545)" d="m0 0 8 3 6 2v2l6 2 6 3v2l10 4v2l6 2 7 4 9 6 6 2 2 2 11 6 7 4 2 1v2l6 2 5 4-1 3-10-4-27-15-24-14-24-13-13-8-1-3z" fill="#293B8D"/>
<path transform="translate(621,475)" d="m0 0 2 1-4 4-53 31-20 12-16 10h-7l2-4 14-9 11-7 11-6 6-4 11-6 17-10 16-9 5-2h2z" fill="#293B8D"/>
<path transform="translate(522,535)" d="m0 0 1 2 5 1 20 11 11 7 11 6 16 9 14 8 25 15 3 2v5l-4-2-5-3-35-20-10-6-12-7-11-6-11-7-5-3-13-8z" fill="#2A3C8D"/>
<path transform="translate(522,798)" d="m0 0 10 4 23 13 27 15 27 16 18 10v2h6l-1 3-7-1-13-7-10-6-11-6-16-9-8-5-8-4-13-8-12-6-11-7z" fill="#2A3B8D"/>
<path transform="translate(734,659)" d="m0 0 1 2-3 3-12 7-21 13-11 6-26 15-23 13-10 4v-2l4-2 4-4 29-17 27-16 10-4 15-9z" fill="#293B8D"/>
<path transform="translate(564,635)" d="m0 0 6 1-5 4-4 4h-3v2h-3l-1 3-3-1 4-4v-1l-15 9-12 7h-3l4-4 25-14z" fill="#2E4090"/>
<path transform="translate(599,614)" d="m0 0 4 1-15 9 1 2-15 8-4 1-2-1 4-4 16-9z" fill="#2B3C8E"/>
<path transform="translate(385,930)" d="m0 0 7 3v2h2l1 4-4 3h-2l-1 2-4 1 1-6-5-1-1-2 3-1z" fill="#25378B"/>
<path transform="translate(212,487)" d="m0 0 6 2-1 2 2 2 2 3v6l-3 1-2 2-4 3-1-4h2v-4l-1-2 2-6z" fill="#25378B"/>
<path transform="translate(142,180)" d="m0 0 4 1 5-1 2 3-3 2 2 4h-2l-1 4 2 1-3 1h-2l-3-1v-3l3-3h-2l-1-4-2-1z" fill="#26388C"/>
<path transform="translate(361,884)" d="m0 0h2l2 3h4 3v2l-5 2-3 1-2-1v8 3l-4-1-2-3 1-3 1-5h2z" fill="#27398C"/>
<path transform="translate(441 1e3)" d="m0 0 4 1 2 7-3 1-1 2-3 2-5-5-1-4 6-3z" fill="#2E4090"/>
<path transform="translate(158,255)" d="m0 0 4 5v2l-8 8-2-1v-2l-4 1v-2l6-5 1-5z" fill="#25378B"/>
<path transform="translate(351,864)" d="m0 0 3 1 4 8 5 7-1 2h-3l-5-5-1-4-3-5z" fill="#26388B"/>
<path transform="translate(178,401)" d="m0 0h8l5 1 3 1-3 3-9 1-5-1z" fill="#25378B"/>
<path transform="translate(141,152)" d="m0 0 7 4 6 2v3h-8l-4-4-4 3v-2l-2-1z" fill="#25378B"/>
<path transform="translate(2047,1325)" d="m0 0h1v15h-9l6-11z" fill="#fff"/>
<path transform="translate(564,635)" d="m0 0 6 1-5 4-4 4h-3v2h-3l-1 3-3-1 4-4 2-1 1-5z" fill="#283A8D"/>
<path transform="translate(149,212)" d="m0 0 3 1v2l3 3-5 4 1 2h-4l-1 2-2-2 1-3h3v-2l-3-1z" fill="#26378B"/>
<path transform="translate(2039)" d="m0 0h9v14l-3-3z" fill="#fff"/>
<path transform="translate(535,1146)" d="m0 0 2 1-1 2 4-1 1 4h-2l1 9-4-1 1-5-7-3-1-4 2 1v2h3z" fill="#26388C"/>
<path transform="translate(657,842)" d="m0 0 4 1-22 13h-2v-2z" fill="#2F4090"/>
<path transform="translate(145,126)" d="m0 0h2l1 3-5 2-1 2-5 1 1-6z" fill="#25378B"/>
<path transform="translate(68,1303)" d="m0 0 6 1 1 5 2 1h-3l-2-2-5 1-1-5z" fill="#3C4D98"/>
<path transform="translate(466,1070)" d="m0 0h5l3 6-5 1-1-3-4 2-1-4z" fill="#25378B"/>
<path transform="translate(540,1165)" d="m0 0 5 1 2 2-3 4-1 2 2 1-6 2 2-9 1-2z" fill="#25378B"/>
<path transform="translate(534,1162)" d="m0 0 1 3 4-1 1 5h-3l-1-2-1 4-5-3 1-4 3 1z" fill="#26388B"/>
<path transform="translate(413,991)" d="m0 0 4 1-1 2 4-3 1 7-3 2-5-5z" fill="#26388B"/>
<path transform="translate(361,891)" d="m0 0h1v8 3l-4-1-2-3 2-4z" fill="#25378B"/>
<path transform="translate(141,100)" d="m0 0 4 1 2 4-5 3-3-3z" fill="#25378B"/>
<path transform="translate(17,1149)" d="m0 0 1 3h-2v6l4 5v3h-3v-2l-2-1v-2l-1-2v-6z" fill="#25378B"/>
<path transform="translate(444 1e3)" d="m0 0h1l2 7-3 1-1 2-3 2-2-2-1-3 5-1z" fill="#25378B"/>
<path transform="translate(599,614)" d="m0 0 4 1-13 8-4-1z" fill="#2E4090"/>
<path transform="translate(158,284)" d="m0 0h9l1 2-9 2-1 2-4-2 4-1z" fill="#25378B"/>
<path transform="translate(166,307)" d="m0 0 2 1-1 4-4 2-3-3v-3h5z" fill="#25378B"/>
<path transform="translate(44,1265)" d="m0 0 5 1v4h-3l-1 3-3-2z" fill="#2A3C8E"/>
<path transform="translate(215,519)" d="m0 0 3 1-1 7-4 1-1-4 1-2h2z" fill="#25378B"/>
</svg>
